<svg width="240" height="136" viewBox="0 0 240 136" fill="none" xmlns="http://www.w3.org/2000/svg">
<g clip-path="url(#clip0_312_222)">
<path d="M230 0H10C4.47715 0 0 4.47715 0 10V126C0 131.523 4.47715 136 10 136H230C235.523 136 240 131.523 240 126V10C240 4.47715 235.523 0 230 0Z" fill="#1B233D"/>
<path d="M100.835 22.4035V79.0765C100.835 106.274 86.2871 116.142 60.1012 116.142C35.6863 116.142 20 106.021 20 83.7571V81.8596H46.5655C47.0715 91.7268 49.8545 97.4193 60.3542 97.4193C68.5768 97.4193 74.2694 93.1183 74.2694 78.95V22.4035H100.835ZM219.494 52.3846H192.169C190.778 42.2644 182.555 38.7223 172.435 38.7223C155.104 38.7223 146.755 50.8665 146.755 67.5648C146.755 83.7571 153.713 97.4193 171.676 97.4193C181.796 97.4193 191.031 93.8773 191.916 82.7451H220C218.861 109.69 196.597 116.142 169.02 116.142C141.695 116.142 119.431 102.226 119.431 68.1973C119.431 33.9152 140.683 20 173.321 20C196.597 20 219.114 28.2226 219.494 52.3846Z" fill="white"/>
</g>
<defs>
<clipPath id="clip0_312_222">
<rect width="240" height="136" fill="white"/>
</clipPath>
</defs>
</svg>
